<svg xmlns="http://www.w3.org/2000/svg" viewBox="0 0 512 512" fill="none">
  <rect width="512" height="512" rx="0" fill="#F8EFE3"/>
  <g opacity="0.95">
    <circle cx="256" cy="256" r="146" fill="#96C3BB"/>
    <g stroke="#EFE3D5" stroke-width="2.5" stroke-linecap="round" stroke-linejoin="round" opacity="0.9">
      <path d="M256 170c-20 18-38 42-38 68 0 23 17 45 38 57"/>
      <path d="M256 170c20 18 38 42 38 68 0 23-17 45-38 57"/>
      <path d="M256 162c-34 16-62 52-62 92 0 32 20 61 62 81"/>
      <path d="M256 162c34 16 62 52 62 92 0 32-20 61-62 81"/>
      <path d="M256 154c-48 18-86 66-86 118 0 41 25 79 86 105"/>
      <path d="M256 154c48 18 86 66 86 118 0 41-25 79-86 105"/>
    </g>
    <text x="256" y="285" text-anchor="middle" font-family="Georgia, 'Times New Roman', serif" font-size="126" font-weight="700" fill="#FFFFFF" letter-spacing="-8">TL</text>
    <text x="256" y="344" text-anchor="middle" font-family="Arial, Helvetica, sans-serif" font-size="36" fill="#F4E5D9" letter-spacing="-0.5">Thais Lourençano</text>
    <text x="256" y="381" text-anchor="middle" font-family="Arial, Helvetica, sans-serif" font-size="22" fill="#F4E5D9" letter-spacing="8">PSICÓLOGA</text>
  </g>
  <g stroke="#CDAFA2" stroke-width="8" stroke-linecap="round" opacity="0.95">
    <path d="M351 36l46-18"/>
    <path d="M374 60l58-16"/>
    <path d="M395 86l63-12"/>
    <path d="M414 114l66-6"/>
    <path d="M430 145l66 0"/>
    <path d="M79 407l-34 93"/>
    <path d="M111 430l-16 81"/>
    <path d="M147 446l0 70"/>
    <path d="M181 446l16 70"/>
  </g>
</svg>